<svg width="87" height="14" viewBox="0 0 87 14" fill="none" xmlns="http://www.w3.org/2000/svg">
<path d="M6.81399 1.55253C7.07726 0.956696 7.92273 0.956696 8.18601 1.55253L9.28567 4.04117C9.50536 4.53836 9.97683 4.87779 10.518 4.9284L13.2515 5.18401C13.9089 5.24549 14.1718 6.06516 13.6728 6.49757L11.6445 8.25508C11.2262 8.61755 11.0415 9.18092 11.164 9.7207L11.7546 12.3229C11.8996 12.9615 11.2138 13.4662 10.6472 13.1379L8.25197 11.7501C7.78687 11.4806 7.21313 11.4806 6.74803 11.7501L4.35277 13.1379C3.78615 13.4662 3.10044 12.9615 3.24538 12.3229L3.83599 9.7207C3.9585 9.18092 3.7738 8.61754 3.35549 8.25507L1.32722 6.49757C0.828192 6.06516 1.09109 5.24549 1.74853 5.18401L4.48197 4.9284C5.02317 4.87779 5.49464 4.53836 5.71433 4.04117L6.81399 1.55253Z" fill="#F8E50A"/>
<path d="M24.814 1.55253C25.0773 0.956696 25.9227 0.956696 26.186 1.55253L27.2857 4.04117C27.5054 4.53836 27.9768 4.87779 28.518 4.9284L31.2515 5.18401C31.9089 5.24549 32.1718 6.06516 31.6728 6.49757L29.6445 8.25508C29.2262 8.61755 29.0415 9.18092 29.164 9.7207L29.7546 12.3229C29.8996 12.9615 29.2138 13.4662 28.6472 13.1379L26.252 11.7501C25.7869 11.4806 25.2131 11.4806 24.748 11.7501L22.3528 13.1379C21.7862 13.4662 21.1004 12.9615 21.2454 12.3229L21.836 9.7207C21.9585 9.18092 21.7738 8.61754 21.3555 8.25507L19.3272 6.49757C18.8282 6.06516 19.0911 5.24549 19.7485 5.18401L22.482 4.9284C23.0232 4.87779 23.4946 4.53836 23.7143 4.04117L24.814 1.55253Z" fill="#F8E50A"/>
<path d="M42.814 1.55253C43.0773 0.956696 43.9227 0.956696 44.186 1.55253L45.2857 4.04117C45.5054 4.53836 45.9768 4.87779 46.518 4.9284L49.2515 5.18401C49.9089 5.24549 50.1718 6.06516 49.6728 6.49757L47.6445 8.25508C47.2262 8.61755 47.0415 9.18092 47.164 9.7207L47.7546 12.3229C47.8996 12.9615 47.2138 13.4662 46.6472 13.1379L44.252 11.7501C43.7869 11.4806 43.2131 11.4806 42.748 11.7501L40.3528 13.1379C39.7862 13.4662 39.1004 12.9615 39.2454 12.3229L39.836 9.7207C39.9585 9.18092 39.7738 8.61754 39.3555 8.25507L37.3272 6.49757C36.8282 6.06516 37.0911 5.24549 37.7485 5.18401L40.482 4.9284C41.0232 4.87779 41.4946 4.53836 41.7143 4.04117L42.814 1.55253Z" fill="#F8E50A"/>
<path d="M60.814 1.55253C61.0773 0.956696 61.9227 0.956696 62.186 1.55253L63.2857 4.04117C63.5054 4.53836 63.9768 4.87779 64.518 4.9284L67.2515 5.18401C67.9089 5.24549 68.1718 6.06516 67.6728 6.49757L65.6445 8.25508C65.2262 8.61755 65.0415 9.18092 65.164 9.7207L65.7546 12.3229C65.8996 12.9615 65.2138 13.4662 64.6472 13.1379L62.252 11.7501C61.7869 11.4806 61.2131 11.4806 60.748 11.7501L58.3528 13.1379C57.7862 13.4662 57.1004 12.9615 57.2454 12.3229L57.836 9.7207C57.9585 9.18092 57.7738 8.61754 57.3555 8.25507L55.3272 6.49757C54.8282 6.06516 55.0911 5.24549 55.7485 5.18401L58.482 4.9284C59.0232 4.87779 59.4946 4.53836 59.7143 4.04117L60.814 1.55253Z" fill="#F8E50A"/>
<path d="M78.814 1.55253C79.0773 0.956696 79.9227 0.956696 80.186 1.55253L81.2857 4.04117C81.5054 4.53836 81.9768 4.87779 82.518 4.9284L85.2515 5.18401C85.9089 5.24549 86.1718 6.06516 85.6728 6.49757L83.6445 8.25508C83.2262 8.61755 83.0415 9.18092 83.164 9.7207L83.7546 12.3229C83.8996 12.9615 83.2138 13.4662 82.6472 13.1379L80.252 11.7501C79.7869 11.4806 79.2131 11.4806 78.748 11.7501L76.3528 13.1379C75.7862 13.4662 75.1004 12.9615 75.2454 12.3229L75.836 9.7207C75.9585 9.18092 75.7738 8.61754 75.3555 8.25507L73.3272 6.49757C72.8282 6.06516 73.0911 5.24549 73.7485 5.18401L76.482 4.9284C77.0232 4.87779 77.4946 4.53836 77.7143 4.04117L78.814 1.55253Z" fill="#F8E50A"/>
</svg>
